<svg width="25" height="24" viewBox="0 0 25 24" fill="none" xmlns="http://www.w3.org/2000/svg">
<g id="teenyicons:apple-solid" clip-path="url(#clip0_664_36937)">
<path id="Vector" d="M13.1 4.69919C13.022 4.70025 12.9445 4.68588 12.8721 4.6569C12.7997 4.62792 12.7337 4.58491 12.6779 4.53034C12.6222 4.47577 12.5777 4.41072 12.5472 4.33893C12.5167 4.26713 12.5006 4.19001 12.5 4.11199C12.5 1.83999 14.3816 -6.71714e-06 16.6984 -6.71714e-06C16.7764 -0.00106352 16.8539 0.0133099 16.9263 0.0422872C16.9987 0.0712644 17.0647 0.114274 17.1205 0.168843C17.1762 0.223412 17.2207 0.288464 17.2512 0.36026C17.2817 0.432055 17.2978 0.509178 17.2984 0.587193C17.2984 2.85919 15.4184 4.69919 13.1 4.69919Z" fill="black"/>
<path id="Vector_2" d="M13.1004 4.69919C13.0224 4.70025 12.9449 4.68588 12.8725 4.6569C12.8001 4.62792 12.7341 4.58491 12.6783 4.53034C12.6225 4.47577 12.5781 4.41072 12.5476 4.33893C12.5171 4.26713 12.501 4.19001 12.5004 4.11199C12.5004 1.83999 14.382 -6.71714e-06 16.6988 -6.71714e-06C16.7768 -0.00106352 16.8543 0.0133099 16.9267 0.0422872C16.9991 0.0712644 17.0651 0.114274 17.1209 0.168843C17.1766 0.223412 17.2211 0.288464 17.2516 0.36026C17.2821 0.432055 17.2982 0.509178 17.2988 0.587193C17.2988 2.85919 15.4188 4.69919 13.1004 4.69919ZM21.8604 17.0688C22.0924 17.2384 22.1676 17.5488 22.0364 17.8016C19.9244 21.9392 18.2396 24 16.7004 24C15.9836 24 15.2796 23.7728 14.5932 23.3312C14.1002 23.0158 13.5298 22.8423 12.9447 22.8299C12.3596 22.8175 11.7823 22.9666 11.2764 23.2608C10.4444 23.7488 9.65239 24 8.90039 24C6.63639 24 2.90039 17.1728 2.90039 13.4272C2.90039 9.42719 5.04279 6.37759 8.30039 6.37759C9.83319 6.37653 11.1559 6.59999 12.2684 7.04799C12.7388 7.23679 13.2716 7.22399 13.7308 7.00799C14.6332 6.58239 15.8236 6.37759 17.2988 6.37759C19.102 6.37759 20.6748 7.25759 21.9804 8.96159C22.028 9.02287 22.0628 9.09315 22.0826 9.16821C22.1024 9.24327 22.1069 9.32156 22.0957 9.39837C22.0845 9.47518 22.0578 9.54894 22.0174 9.61521C21.977 9.68148 21.9236 9.73889 21.8604 9.78399C20.4028 10.856 19.7004 12.0576 19.7004 13.4272C19.7004 14.7952 20.4028 15.9984 21.8604 17.0688Z" fill="black"/>
<path id="Vector_3" d="M21.8604 17.0688C22.0924 17.2384 22.1676 17.5488 22.0364 17.8016C19.9244 21.9392 18.2396 24 16.7004 24C15.9836 24 15.2796 23.7728 14.5932 23.3312C14.1002 23.0158 13.5298 22.8423 12.9447 22.8299C12.3596 22.8175 11.7823 22.9666 11.2764 23.2608C10.4444 23.7488 9.65239 24 8.90039 24C6.63639 24 2.90039 17.1728 2.90039 13.4272C2.90039 9.42723 5.04279 6.37763 8.30039 6.37763C9.83319 6.37656 11.1559 6.60003 12.2684 7.04803C12.7388 7.23683 13.2716 7.22403 13.7308 7.00803C14.6332 6.58243 15.8236 6.37763 17.2988 6.37763C19.102 6.37763 20.6748 7.25763 21.9804 8.96163C22.028 9.02291 22.0628 9.09319 22.0826 9.16824C22.1024 9.2433 22.1069 9.32159 22.0957 9.3984C22.0845 9.47522 22.0578 9.54898 22.0174 9.61524C21.977 9.68151 21.9236 9.73892 21.8604 9.78403C20.4028 10.856 19.7004 12.0576 19.7004 13.4272C19.7004 14.7952 20.4028 15.9984 21.8604 17.0688Z" fill="black"/>
</g>
<defs>
<clipPath id="clip0_664_36937">
<rect width="24" height="24" fill="white" transform="translate(0.5)"/>
</clipPath>
</defs>
</svg>
