<svg width="33" height="32" viewBox="0 0 33 32" fill="none" xmlns="http://www.w3.org/2000/svg">
<rect x="0.5" width="32" height="32" rx="4.07" fill="#4B57E2"/>
<rect x="0.5" width="32" height="32" rx="4.07" fill="url(#paint0_linear_664_33890)"/>
<path d="M23.5049 20.9953H22.5049V13.9953C22.5049 13.7301 22.3995 13.4757 22.212 13.2882C22.0245 13.1006 21.7701 12.9953 21.5049 12.9953H17.5049V9.99528C17.505 9.81419 17.4559 9.63647 17.363 9.48109C17.27 9.32571 17.1365 9.19849 16.9769 9.11302C16.8172 9.02755 16.6374 8.98704 16.4565 8.9958C16.2756 9.00456 16.1005 9.06228 15.9499 9.16278L10.9499 12.4953C10.8127 12.5868 10.7003 12.7108 10.6227 12.8563C10.545 13.0017 10.5046 13.1641 10.5049 13.329V20.9953H9.50488C9.37227 20.9953 9.2451 21.048 9.15133 21.1417C9.05756 21.2355 9.00488 21.3627 9.00488 21.4953C9.00488 21.6279 9.05756 21.7551 9.15133 21.8488C9.2451 21.9426 9.37227 21.9953 9.50488 21.9953H23.5049C23.6375 21.9953 23.7647 21.9426 23.8584 21.8488C23.9522 21.7551 24.0049 21.6279 24.0049 21.4953C24.0049 21.3627 23.9522 21.2355 23.8584 21.1417C23.7647 21.048 23.6375 20.9953 23.5049 20.9953ZM21.5049 13.9953V20.9953H17.5049V13.9953H21.5049ZM11.5049 13.329L16.5049 9.99528V20.9953H11.5049V13.329ZM15.5049 14.9953V15.9953C15.5049 16.1279 15.4522 16.2551 15.3584 16.3488C15.2647 16.4426 15.1375 16.4953 15.0049 16.4953C14.8723 16.4953 14.7451 16.4426 14.6513 16.3488C14.5576 16.2551 14.5049 16.1279 14.5049 15.9953V14.9953C14.5049 14.8627 14.5576 14.7355 14.6513 14.6417C14.7451 14.548 14.8723 14.4953 15.0049 14.4953C15.1375 14.4953 15.2647 14.548 15.3584 14.6417C15.4522 14.7355 15.5049 14.8627 15.5049 14.9953ZM13.5049 14.9953V15.9953C13.5049 16.1279 13.4522 16.2551 13.3584 16.3488C13.2647 16.4426 13.1375 16.4953 13.0049 16.4953C12.8723 16.4953 12.7451 16.4426 12.6513 16.3488C12.5576 16.2551 12.5049 16.1279 12.5049 15.9953V14.9953C12.5049 14.8627 12.5576 14.7355 12.6513 14.6417C12.7451 14.548 12.8723 14.4953 13.0049 14.4953C13.1375 14.4953 13.2647 14.548 13.3584 14.6417C13.4522 14.7355 13.5049 14.8627 13.5049 14.9953ZM13.5049 18.4953V19.4953C13.5049 19.6279 13.4522 19.7551 13.3584 19.8488C13.2647 19.9426 13.1375 19.9953 13.0049 19.9953C12.8723 19.9953 12.7451 19.9426 12.6513 19.8488C12.5576 19.7551 12.5049 19.6279 12.5049 19.4953V18.4953C12.5049 18.3627 12.5576 18.2355 12.6513 18.1417C12.7451 18.048 12.8723 17.9953 13.0049 17.9953C13.1375 17.9953 13.2647 18.048 13.3584 18.1417C13.4522 18.2355 13.5049 18.3627 13.5049 18.4953ZM15.5049 18.4953V19.4953C15.5049 19.6279 15.4522 19.7551 15.3584 19.8488C15.2647 19.9426 15.1375 19.9953 15.0049 19.9953C14.8723 19.9953 14.7451 19.9426 14.6513 19.8488C14.5576 19.7551 14.5049 19.6279 14.5049 19.4953V18.4953C14.5049 18.3627 14.5576 18.2355 14.6513 18.1417C14.7451 18.048 14.8723 17.9953 15.0049 17.9953C15.1375 17.9953 15.2647 18.048 15.3584 18.1417C15.4522 18.2355 15.5049 18.3627 15.5049 18.4953Z" fill="white"/>
<defs>
<linearGradient id="paint0_linear_664_33890" x1="16.5" y1="0" x2="16.5" y2="32" gradientUnits="userSpaceOnUse">
<stop stop-color="#5499FF"/>
<stop offset="1" stop-color="#4B57E2" stop-opacity="0.9"/>
</linearGradient>
</defs>
</svg>
