<svg width="33" height="32" viewBox="0 0 33 32" fill="none" xmlns="http://www.w3.org/2000/svg">
<rect x="0.5" width="32" height="32" rx="4.07" fill="#4B57E2"/>
<rect x="0.5" width="32" height="32" rx="4.07" fill="url(#paint0_linear_664_33896)"/>
<path d="M20.536 18.712C21.1683 18.1809 21.6734 17.5147 22.0141 16.7625C22.3549 16.0103 22.5225 15.1913 22.5048 14.3657C22.4423 11.5089 20.1542 9.15325 17.3023 9.00325C16.5664 8.9632 15.8301 9.07142 15.1369 9.3215C14.4437 9.57158 13.8078 9.95841 13.2671 10.459C12.7263 10.9596 12.2916 11.5638 11.9889 12.2357C11.6862 12.9075 11.5215 13.6334 11.5048 14.3701L10.1017 17.0689C10.096 17.0801 10.0904 17.0914 10.0854 17.1026C9.98481 17.3371 9.97764 17.6011 10.0654 17.8407C10.1531 18.0803 10.3291 18.2773 10.5573 18.3914L10.5729 18.3982L12.0048 19.0539V20.9951C12.0048 21.2603 12.1101 21.5147 12.2977 21.7022C12.4852 21.8898 12.7396 21.9951 13.0048 21.9951H16.0048C16.1374 21.9951 16.2646 21.9424 16.3583 21.8487C16.4521 21.7549 16.5048 21.6277 16.5048 21.4951C16.5048 21.3625 16.4521 21.2353 16.3583 21.1416C16.2646 21.0478 16.1374 20.9951 16.0048 20.9951H13.0048V18.7332C13.0048 18.6374 12.9774 18.5436 12.9256 18.4629C12.8739 18.3822 12.8 18.3181 12.7129 18.2782L11.0048 17.4951L12.4467 14.7239C12.4842 14.6534 12.5042 14.5749 12.5048 14.4951C12.5046 13.4753 12.8509 12.4857 13.4868 11.6885C14.1227 10.8912 15.0105 10.3336 16.0048 10.107V11.0814C15.6712 11.1993 15.39 11.4314 15.211 11.7366C15.0319 12.0418 14.9665 12.4005 15.0264 12.7492C15.0862 13.098 15.2674 13.4144 15.5379 13.6424C15.8085 13.8705 16.1509 13.9956 16.5048 13.9956C16.8586 13.9956 17.2011 13.8705 17.4716 13.6424C17.7421 13.4144 17.9233 13.098 17.9832 12.7492C18.043 12.4005 17.9776 12.0418 17.7986 11.7366C17.6196 11.4314 17.3384 11.1993 17.0048 11.0814V9.99512C17.086 9.99512 17.1673 9.99512 17.2485 10.0014C18.1352 10.0522 18.9872 10.3633 19.698 10.8957C20.4088 11.4282 20.9468 12.1585 21.2448 12.9951H20.0048C19.9314 12.9951 19.859 13.0112 19.7925 13.0423C19.7261 13.0734 19.6673 13.1188 19.6204 13.1751L18.026 15.0889C17.6935 14.965 17.3279 14.9627 16.9938 15.0823C16.6598 15.202 16.3788 15.436 16.2006 15.7428C16.0224 16.0497 15.9584 16.4097 16.0201 16.7592C16.0817 17.1086 16.2649 17.425 16.5374 17.6524C16.8098 17.8798 17.1539 18.0035 17.5087 18.0017C17.8636 17.9999 18.2063 17.8726 18.4764 17.6424C18.7465 17.4123 18.9264 17.094 18.9845 16.7439C19.0425 16.3938 18.9749 16.0345 18.7935 15.7295L20.2392 13.9951H21.476C21.491 14.1251 21.5002 14.2564 21.5035 14.3889C21.5191 15.105 21.3641 15.8146 21.0514 16.459C20.7386 17.1035 20.277 17.6643 19.7048 18.0951C19.6343 18.148 19.579 18.2185 19.5445 18.2997C19.51 18.3808 19.4976 18.4695 19.5085 18.557L20.0085 22.557C20.0237 22.6777 20.0825 22.7888 20.1737 22.8693C20.265 22.9499 20.3824 22.9944 20.5042 22.9945C20.525 22.9945 20.5459 22.9932 20.5667 22.9907C20.6318 22.9826 20.6948 22.9618 20.7519 22.9293C20.809 22.8969 20.8591 22.8535 20.8995 22.8017C20.9398 22.7498 20.9695 22.6906 20.987 22.6272C21.0044 22.5639 21.0092 22.4978 21.001 22.4326L20.536 18.712ZM16.5048 12.9951C16.4059 12.9951 16.3092 12.9658 16.227 12.9109C16.1448 12.8559 16.0807 12.7778 16.0428 12.6865C16.005 12.5951 15.9951 12.4946 16.0144 12.3976C16.0337 12.3006 16.0813 12.2115 16.1512 12.1416C16.2211 12.0716 16.3102 12.024 16.4072 12.0047C16.5042 11.9854 16.6048 11.9953 16.6961 12.0332C16.7875 12.071 16.8656 12.1351 16.9205 12.2173C16.9755 12.2996 17.0048 12.3962 17.0048 12.4951C17.0048 12.6277 16.9521 12.7549 16.8583 12.8487C16.7646 12.9424 16.6374 12.9951 16.5048 12.9951ZM17.5048 16.9951C17.4059 16.9951 17.3092 16.9658 17.227 16.9109C17.1448 16.8559 17.0807 16.7778 17.0428 16.6865C17.005 16.5951 16.9951 16.4946 17.0144 16.3976C17.0337 16.3006 17.0813 16.2115 17.1512 16.1416C17.2211 16.0716 17.3102 16.024 17.4072 16.0047C17.5042 15.9854 17.6048 15.9953 17.6961 16.0332C17.7875 16.071 17.8656 16.1351 17.9205 16.2173C17.9755 16.2996 18.0048 16.3962 18.0048 16.4951C18.0048 16.6277 17.9521 16.7549 17.8583 16.8487C17.7646 16.9424 17.6374 16.9951 17.5048 16.9951Z" fill="white"/>
<defs>
<linearGradient id="paint0_linear_664_33896" x1="16.5" y1="0" x2="16.5" y2="32" gradientUnits="userSpaceOnUse">
<stop stop-color="#5499FF"/>
<stop offset="1" stop-color="#4B57E2" stop-opacity="0.9"/>
</linearGradient>
</defs>
</svg>
