<svg width="33" height="32" viewBox="0 0 33 32" fill="none" xmlns="http://www.w3.org/2000/svg">
<rect x="0.5" width="32" height="32" rx="4.07" fill="#4B57E2"/>
<rect x="0.5" width="32" height="32" rx="4.07" fill="url(#paint0_linear_664_33921)"/>
<path d="M11.5049 11.9951C11.5049 11.8625 11.5575 11.7353 11.6513 11.6416C11.7451 11.5478 11.8723 11.4951 12.0049 11.4951H13.0049V10.4951C13.0049 10.3625 13.0575 10.2353 13.1513 10.1416C13.2451 10.0478 13.3723 9.99512 13.5049 9.99512C13.6375 9.99512 13.7647 10.0478 13.8584 10.1416C13.9522 10.2353 14.0049 10.3625 14.0049 10.4951V11.4951H15.0049C15.1375 11.4951 15.2647 11.5478 15.3584 11.6416C15.4522 11.7353 15.5049 11.8625 15.5049 11.9951C15.5049 12.1277 15.4522 12.2549 15.3584 12.3487C15.2647 12.4424 15.1375 12.4951 15.0049 12.4951H14.0049V13.4951C14.0049 13.6277 13.9522 13.7549 13.8584 13.8487C13.7647 13.9424 13.6375 13.9951 13.5049 13.9951C13.3723 13.9951 13.2451 13.9424 13.1513 13.8487C13.0575 13.7549 13.0049 13.6277 13.0049 13.4951V12.4951H12.0049C11.8723 12.4951 11.7451 12.4424 11.6513 12.3487C11.5575 12.2549 11.5049 12.1277 11.5049 11.9951ZM20.0049 19.9951H19.5049V19.4951C19.5049 19.3625 19.4522 19.2353 19.3584 19.1416C19.2647 19.0478 19.1375 18.9951 19.0049 18.9951C18.8723 18.9951 18.7451 19.0478 18.6513 19.1416C18.5575 19.2353 18.5049 19.3625 18.5049 19.4951V19.9951H18.0049C17.8723 19.9951 17.7451 20.0478 17.6513 20.1416C17.5575 20.2353 17.5049 20.3625 17.5049 20.4951C17.5049 20.6277 17.5575 20.7549 17.6513 20.8487C17.7451 20.9424 17.8723 20.9951 18.0049 20.9951H18.5049V21.4951C18.5049 21.6277 18.5575 21.7549 18.6513 21.8487C18.7451 21.9424 18.8723 21.9951 19.0049 21.9951C19.1375 21.9951 19.2647 21.9424 19.3584 21.8487C19.4522 21.7549 19.5049 21.6277 19.5049 21.4951V20.9951H20.0049C20.1375 20.9951 20.2647 20.9424 20.3584 20.8487C20.4522 20.7549 20.5049 20.6277 20.5049 20.4951C20.5049 20.3625 20.4522 20.2353 20.3584 20.1416C20.2647 20.0478 20.1375 19.9951 20.0049 19.9951ZM23.5049 16.9951H22.5049V15.9951C22.5049 15.8625 22.4522 15.7353 22.3584 15.6416C22.2647 15.5478 22.1375 15.4951 22.0049 15.4951C21.8723 15.4951 21.7451 15.5478 21.6513 15.6416C21.5575 15.7353 21.5049 15.8625 21.5049 15.9951V16.9951H20.5049C20.3723 16.9951 20.2451 17.0478 20.1513 17.1416C20.0575 17.2353 20.0049 17.3625 20.0049 17.4951C20.0049 17.6277 20.0575 17.7549 20.1513 17.8487C20.2451 17.9424 20.3723 17.9951 20.5049 17.9951H21.5049V18.9951C21.5049 19.1277 21.5575 19.2549 21.6513 19.3487C21.7451 19.4424 21.8723 19.4951 22.0049 19.4951C22.1375 19.4951 22.2647 19.4424 22.3584 19.3487C22.4522 19.2549 22.5049 19.1277 22.5049 18.9951V17.9951H23.5049C23.6375 17.9951 23.7647 17.9424 23.8584 17.8487C23.9522 17.7549 24.0049 17.6277 24.0049 17.4951C24.0049 17.3625 23.9522 17.2353 23.8584 17.1416C23.7647 17.0478 23.6375 16.9951 23.5049 16.9951ZM22.2117 12.9951L13.5049 21.702C13.3174 21.8894 13.0631 21.9947 12.798 21.9947C12.5329 21.9947 12.2786 21.8894 12.0911 21.702L10.7974 20.4095C10.7045 20.3166 10.6308 20.2064 10.5805 20.085C10.5303 19.9637 10.5044 19.8336 10.5044 19.7023C10.5044 19.571 10.5303 19.4409 10.5805 19.3196C10.6308 19.1982 10.7045 19.088 10.7974 18.9951L19.5049 10.2882C19.5977 10.1954 19.708 10.1217 19.8293 10.0714C19.9507 10.0211 20.0807 9.99527 20.2121 9.99527C20.3434 9.99527 20.4735 10.0211 20.5948 10.0714C20.7161 10.1217 20.8264 10.1954 20.9192 10.2882L22.2117 11.5807C22.3046 11.6736 22.3783 11.7839 22.4286 11.9052C22.4788 12.0265 22.5047 12.1566 22.5047 12.2879C22.5047 12.4193 22.4788 12.5493 22.4286 12.6707C22.3783 12.792 22.3046 12.9023 22.2117 12.9951ZM18.7974 14.9951L17.5049 13.702L11.5049 19.702L12.7974 20.9951L18.7974 14.9951ZM21.5049 12.2882L20.2117 10.9951L18.2117 12.9951L19.5049 14.2882L21.5049 12.2882Z" fill="white"/>
<defs>
<linearGradient id="paint0_linear_664_33921" x1="16.5" y1="0" x2="16.5" y2="32" gradientUnits="userSpaceOnUse">
<stop stop-color="#5499FF"/>
<stop offset="1" stop-color="#4B57E2" stop-opacity="0.9"/>
</linearGradient>
</defs>
</svg>
