<svg width="33" height="32" viewBox="0 0 33 32" fill="none" xmlns="http://www.w3.org/2000/svg">
<rect x="0.5" width="32" height="32" rx="4.07" fill="#4B57E2"/>
<rect x="0.5" width="32" height="32" rx="4.07" fill="url(#paint0_linear_664_33927)"/>
<path d="M23.8051 17.3951C23.7525 17.4345 23.6928 17.4631 23.6292 17.4794C23.5656 17.4957 23.4994 17.4993 23.4344 17.49C23.3694 17.4808 23.3068 17.4588 23.2503 17.4253C23.1938 17.3918 23.1445 17.3476 23.1051 17.2951C22.8037 16.89 22.4114 16.5613 21.9598 16.3355C21.5083 16.1097 21.01 15.9931 20.5051 15.9951C20.4067 15.9951 20.3106 15.9661 20.2287 15.9117C20.1468 15.8573 20.0827 15.78 20.0444 15.6894C20.0185 15.6279 20.0051 15.5618 20.0051 15.4951C20.0051 15.4283 20.0185 15.3622 20.0444 15.3007C20.0827 15.2101 20.1468 15.1328 20.2287 15.0784C20.3106 15.0241 20.4067 14.9951 20.5051 14.9951C20.7856 14.995 21.0605 14.9163 21.2986 14.7679C21.5367 14.6195 21.7283 14.4072 21.8518 14.1553C21.9753 13.9034 22.0257 13.622 21.9972 13.3429C21.9687 13.0638 21.8626 12.7982 21.6908 12.5765C21.5189 12.3547 21.2884 12.1855 21.0253 12.0882C20.7621 11.9909 20.477 11.9693 20.2022 12.0259C19.9274 12.0825 19.6741 12.2151 19.4708 12.4085C19.2676 12.6019 19.1227 12.8484 19.0526 13.1201C19.0362 13.1837 19.0074 13.2434 18.9679 13.2959C18.9284 13.3484 18.8789 13.3926 18.8223 13.426C18.7657 13.4593 18.7031 13.4812 18.6381 13.4904C18.573 13.4996 18.5068 13.4959 18.4432 13.4794C18.3796 13.463 18.3198 13.4342 18.2674 13.3947C18.2149 13.3552 18.1707 13.3058 18.1373 13.2492C18.1039 13.1926 18.082 13.13 18.0729 13.0649C18.0637 12.9999 18.0674 12.9337 18.0838 12.8701C18.1812 12.4934 18.3651 12.1446 18.6209 11.8515C18.8768 11.5584 19.1975 11.3291 19.5576 11.1818C19.9177 11.0345 20.3072 10.9732 20.6951 11.0029C21.083 11.0326 21.4587 11.1524 21.7921 11.3528C22.1256 11.5532 22.4077 11.8287 22.6159 12.1573C22.8242 12.4859 22.9529 12.8586 22.9918 13.2457C23.0307 13.6328 22.9787 14.0237 22.8399 14.3872C22.7012 14.7506 22.4795 15.0767 22.1926 15.3394C22.8725 15.6338 23.4635 16.1009 23.9069 16.6944C23.9463 16.7471 23.975 16.807 23.9912 16.8708C24.0074 16.9345 24.0108 17.0008 24.0014 17.0659C23.9919 17.131 23.9697 17.1935 23.936 17.25C23.9023 17.3065 23.8578 17.3558 23.8051 17.3951ZM20.4376 21.2451C20.4737 21.302 20.498 21.3656 20.509 21.4322C20.5199 21.4987 20.5173 21.5668 20.5013 21.6323C20.4852 21.6978 20.4561 21.7593 20.4156 21.8133C20.3752 21.8672 20.3242 21.9124 20.2658 21.9462C20.2075 21.9799 20.1428 22.0015 20.0759 22.0097C20.009 22.0178 19.9411 22.0123 19.8763 21.9935C19.8115 21.9747 19.7512 21.943 19.699 21.9003C19.6469 21.8576 19.6038 21.8048 19.5726 21.7451C19.2576 21.2117 18.809 20.7697 18.2711 20.4627C17.7332 20.1556 17.1245 19.9942 16.5051 19.9942C15.8857 19.9942 15.277 20.1556 14.7391 20.4627C14.2011 20.7697 13.7525 21.2117 13.4376 21.7451C13.4063 21.8048 13.3633 21.8576 13.3111 21.9003C13.2589 21.943 13.1986 21.9747 13.1338 21.9935C13.0691 22.0123 13.0012 22.0178 12.9342 22.0097C12.8673 22.0015 12.8027 21.9799 12.7443 21.9462C12.6859 21.9124 12.635 21.8672 12.5945 21.8133C12.5541 21.7593 12.5249 21.6978 12.5089 21.6323C12.4928 21.5668 12.4902 21.4987 12.5012 21.4322C12.5121 21.3656 12.5364 21.302 12.5726 21.2451C13.0573 20.4122 13.7964 19.7567 14.6813 19.3751C14.1834 18.9938 13.8175 18.4662 13.6349 17.8662C13.4524 17.2663 13.4625 16.6242 13.6638 16.0303C13.865 15.4363 14.2473 14.9204 14.757 14.555C15.2666 14.1896 15.878 13.9931 16.5051 13.9931C17.1322 13.9931 17.7435 14.1896 18.2532 14.555C18.7628 14.9204 19.1451 15.4363 19.3464 16.0303C19.5476 16.6242 19.5577 17.2663 19.3752 17.8662C19.1927 18.4662 18.8267 18.9938 18.3288 19.3751C19.2137 19.7567 19.9528 20.4122 20.4376 21.2451ZM16.5051 18.9951C16.9006 18.9951 17.2873 18.8778 17.6162 18.658C17.9451 18.4382 18.2015 18.1259 18.3528 17.7604C18.5042 17.395 18.5438 16.9928 18.4666 16.6049C18.3895 16.2169 18.199 15.8606 17.9193 15.5809C17.6396 15.3011 17.2832 15.1107 16.8953 15.0335C16.5073 14.9563 16.1052 14.9959 15.7397 15.1473C15.3743 15.2987 15.0619 15.555 14.8421 15.8839C14.6224 16.2128 14.5051 16.5995 14.5051 16.9951C14.5051 17.5255 14.7158 18.0342 15.0909 18.4093C15.4659 18.7844 15.9746 18.9951 16.5051 18.9951ZM13.0051 15.4951C13.0051 15.3625 12.9524 15.2353 12.8586 15.1415C12.7649 15.0477 12.6377 14.9951 12.5051 14.9951C12.2245 14.995 11.9496 14.9163 11.7116 14.7679C11.4735 14.6195 11.2818 14.4072 11.1583 14.1553C11.0349 13.9034 10.9845 13.622 11.0129 13.3429C11.0414 13.0638 11.1476 12.7982 11.3194 12.5765C11.4912 12.3547 11.7218 12.1855 11.9849 12.0882C12.248 11.9909 12.5332 11.9693 12.8079 12.0259C13.0827 12.0825 13.3361 12.2151 13.5393 12.4085C13.7425 12.6019 13.8874 12.8484 13.9576 13.1201C13.9907 13.2485 14.0736 13.3586 14.1878 13.426C14.3021 13.4934 14.4385 13.5126 14.5669 13.4794C14.6954 13.4463 14.8054 13.3635 14.8728 13.2492C14.9402 13.1349 14.9595 12.9985 14.9263 12.8701C14.829 12.4934 14.6451 12.1446 14.3892 11.8515C14.1334 11.5584 13.8126 11.3291 13.4525 11.1818C13.0925 11.0345 12.703 10.9732 12.315 11.0029C11.9271 11.0326 11.5515 11.1524 11.218 11.3528C10.8846 11.5532 10.6025 11.8287 10.3942 12.1573C10.1859 12.4859 10.0573 12.8586 10.0184 13.2457C9.97948 13.6328 10.0315 14.0237 10.1702 14.3872C10.309 14.7506 10.5306 15.0767 10.8176 15.3394C10.1384 15.6341 9.54802 16.1012 9.10507 16.6944C9.02542 16.8005 8.99118 16.9339 9.00988 17.0652C9.02857 17.1966 9.09867 17.3151 9.20476 17.3948C9.31085 17.4744 9.44423 17.5086 9.57556 17.4899C9.7069 17.4713 9.82542 17.4012 9.90507 17.2951C10.2064 16.89 10.5987 16.5613 11.0503 16.3355C11.5019 16.1097 12.0002 15.9931 12.5051 15.9951C12.6377 15.9951 12.7649 15.9424 12.8586 15.8486C12.9524 15.7549 13.0051 15.6277 13.0051 15.4951Z" fill="white"/>
<defs>
<linearGradient id="paint0_linear_664_33927" x1="16.5" y1="0" x2="16.5" y2="32" gradientUnits="userSpaceOnUse">
<stop stop-color="#5499FF"/>
<stop offset="1" stop-color="#4B57E2" stop-opacity="0.9"/>
</linearGradient>
</defs>
</svg>
